<?xml version="1.0" encoding="UTF-8"?>
<!DOCTYPE svg PUBLIC "-//W3C//DTD SVG 1.1//EN" "http://www.w3.org/Graphics/SVG/1.1/DTD/svg11.dtd">
<!-- Creator: CorelDRAW -->
<svg xmlns="http://www.w3.org/2000/svg" xml:space="preserve" width="210mm" height="297mm" version="1.1" style="shape-rendering:geometricPrecision; text-rendering:geometricPrecision; image-rendering:optimizeQuality; fill-rule:evenodd; clip-rule:evenodd"
viewBox="0 0 21000 29700"
 xmlns:xlink="http://www.w3.org/1999/xlink"
 xmlns:xodm="http://www.corel.com/coreldraw/odm/2003"
 enable-background="0 0 889 281">
 <defs>
  <style type="text/css">
   <![CDATA[
    .fil0 {fill:white;fill-rule:nonzero}
   ]]>
  </style>
 </defs>
 <g id="Camada_x0020_1">
  <metadata id="CorelCorpID_0Corel-Layer"/>
  <path class="fil0" d="M4380.2 14804.05c56.25,-460.9 -240.66,-754.88 -1024.36,-1005 -379.6,-129.51 -558.42,-299.1 -554.24,-532.91 15.84,-258.82 257.02,-447.6 576.85,-453.9 221.68,4.42 467.92,58.57 707.36,218.31 28.46,17.92 48.48,15.11 64.66,-9.36 22.17,-35.67 77.18,-121.28 95.68,-151.98 12.52,-20.04 14.96,-45.93 -16.75,-69.03 -45.39,-33.68 -172.68,-101.86 -241.01,-130.45 -185.7,-77.73 -394.11,-126.68 -616.34,-126.24 -468.17,1.97 -837.11,298.15 -867.9,693.4 -20.13,285.2 121.07,516.88 424.24,693.51 64.24,37.44 412.04,175.76 550.36,218.82 435.17,135.49 661.12,378.37 607.95,661.54 -48.26,256.93 -318.58,422.84 -691.17,427.88 -295.42,-11.25 -561.27,-131.68 -767.41,-292.02 -5.22,-3.89 -31.12,-23.96 -34.63,-26.66 -25.49,-19.96 -53.31,-18.65 -70.23,7.17 -12.55,18.98 -92.21,134.05 -112.33,164.25 -18.89,26.61 -8.78,41.23 10.85,57.53 86.14,71.81 200.41,150.34 278.34,190.08 214.11,109.16 446.52,168.99 693.78,178.38 158.99,10.78 359.55,-23.39 509.18,-86.9 268.81,-114.09 442.4,-341.98 477.12,-626.42zm-967.1 -4062.71c-507.27,0 -920.78,478.11 -940.14,1076.58l1880.29 0c-19.36,-598.47 -432.86,-1076.58 -940.15,-1076.58zm1925.9 5543.06l-19.4 0.16 -3871.98 -0.57 -0.09 0c-263.37,-9.85 -457.03,-223.32 -483.45,-488.34l-2.59 -47.75 -173.13 -3808.72 0.02 -0.02c-0.24,-2.88 -0.33,-5.77 -0.33,-8.72 0,-61.45 49.26,-111.39 110.45,-112.5l0 -0.02 1220.48 0c29.92,-790.23 597.87,-1420.34 1294.12,-1420.34 696.25,0 1264.21,630.11 1294.13,1420.34l1216.99 0 1.72 0c62.18,0 112.55,50.37 112.55,112.52 0,1.95 -0.04,3.88 -0.14,5.8l0 0.07 -189.7 3823.71 -1.72 32.37c-22.93,268.33 -239.98,484.76 -507.93,492.01zm2791.05 -2537.07c833.84,249.56 1161.86,561.72 1109.42,1062.84 -32.31,308.74 -216.92,559.55 -506.26,688.05 -159.5,70.83 -373.15,111.08 -543.6,102.54 -262.37,-5.36 -510.4,-64.42 -740,-176.23 -82.96,-40.36 -205.19,-120.57 -300.29,-196.87l-0.34 -0.31c-44.45,-37.4 -49.74,-61.71 -19.33,-106.81 7.87,-12.24 22.25,-34.05 55.54,-84.24 28.56,-43.06 57.06,-86.37 58.46,-88.49 35.57,-53.7 73.17,-53.7 125.04,-18.06 0.35,0.27 5.05,3.74 18.39,13.66 10.6,7.85 17.12,12.7 18.32,13.56 236.08,176.65 508.72,276.2 780.47,281.82 371.91,-11.48 634.14,-178.44 676.31,-426.21 46.39,-272.52 -178.79,-506.14 -618.6,-634.4 -153.9,-44.87 -490.11,-170.91 -583.95,-220.24 -329.91,-184.14 -488.96,-434.43 -472.41,-745.84 26.08,-431.12 421.18,-758.43 925.74,-769.34 221.74,-4.3 443.66,37.44 657.46,122.37 77.08,30.62 212.08,100.46 260.78,135.17 56.58,39.97 56.58,67.54 29.01,119.19 -3.9,6.72 -18.59,27.99 -56.69,82.47l-0.14 0.17c-40.2,57.49 -52.26,74.86 -55.8,80.75 -33.08,42.86 -60.83,56.09 -117.45,21.9 -222.66,-142.66 -448.41,-209.97 -703.61,-210.61 -314.52,11.68 -545.53,198.14 -556.62,445.41 0.09,222.81 176.66,384.63 560.15,507.75zm2338.95 -124.96c508.69,0 928.77,410.7 930.67,913.93l0 983.07c0,56.74 -14.56,70.1 -70.26,70.1l-233.71 0c-56.25,0 -70.25,-13.36 -70.25,-70.1l0 -980.15c-1.26,-303.46 -249.98,-548.97 -556.45,-548.97 -305.72,0 -554.11,244.35 -556.48,546.82l0 982.3c0,48.84 -19.2,70.13 -70.23,70.13l-234.27 0c-55.7,0 -70.23,-20.62 -70.23,-70.13l0 -3007.62c0,-51.62 14.53,-70.1 70.23,-70.1l234.27 0c50.21,0 70.23,19.48 70.23,70.1l0 1294.35c160.03,-118.34 354.14,-183.73 556.48,-183.73zm2235.06 1612.84c352.16,0 637.53,-279.63 637.53,-624.42 0,-344.8 -285.38,-624.43 -637.53,-624.43 -352.19,0 -637.55,279.63 -637.55,624.43 0,344.79 285.36,624.42 637.55,624.42zm0.2 -1610.8c556.01,0 1006.82,441.74 1006.82,986.86 0,545.1 -450.81,986.86 -1006.82,986.86 -556.01,0 -1006.86,-441.76 -1006.86,-986.86 0,-545.12 450.83,-986.86 1006.86,-986.86zm6220.41 757.77l1115.36 0c-80.22,-227.61 -313.56,-397.73 -562.63,-397.73 -258.27,0 -479.56,158.99 -552.73,397.73zm1392 361.85c-1.67,0 -3.32,-0.04 -4.45,-0.08l-1410.48 0c35.79,181.14 160.19,335.39 332.26,421.68 44.54,21.29 93.09,38.97 144.89,52.89 251.99,52.73 541.25,14.32 761.7,-181.52 3.17,-3.47 9.15,-7.23 15.6,-12.92 36.93,-32.59 62.94,-24.33 91.9,11.82 0,0 41.4,57.53 115.35,175.23 31.85,49.63 29.5,73.49 -23.87,128.5 -2.2,2.21 -6.38,6.12 -12.52,11.55 -10.14,8.89 -22.24,18.78 -36.32,29.43 -40.09,30.2 -88.06,60.41 -143.94,88.53 -206.52,104.03 -461.06,152.99 -763.59,116.57 -10.05,-1.53 -18.06,-2.78 -25.82,-4.1l0 0.54 -17.22 -3.21c-221.12,-41.2 -419.74,-151.4 -565.88,-312.25 -0.79,-0.82 -0.83,-0.86 -1.03,-1.13 -131.11,-144.49 -215.44,-324.32 -241.84,-521.61l-0.22 0 -1.55 -12.84c-4.71,-40.16 -7.12,-80.66 -7.12,-121.37 0,-544.93 427.29,-986.86 954.59,-986.86 527.36,0 954.6,441.92 954.6,986.86 0,4.2 -0.02,6.13 -0.05,7.28 0.18,2.61 0.27,5.31 0.27,8.29 0,63.47 -48.55,115.83 -110.11,118.61 -1.79,0.07 -3.47,0.11 -5.15,0.11zm-5306.52 486.07c345.78,0 626.09,-279.56 626.09,-624.42 0,-344.85 -280.31,-624.43 -626.09,-624.43 -339.88,0 -617.47,270.47 -625.9,608.23l0 32.19c8.52,338.07 286.09,608.43 625.9,608.43zm0.18 -1610.8c546.43,0 989.43,441.83 989.43,986.86 0,545.05 -443,986.9 -989.43,986.9 -231.63,0 -450.92,-79.73 -626.08,-222.71l0 1158.66c0,52 -14.54,70.08 -70.26,70.08l-222.83 0c-55.71,0 -70.25,-18.5 -70.25,-70.08l0 -2839.62c0,-54.48 14.54,-70.09 70.25,-70.09l222.83 0c55.72,0 70.26,17.02 70.26,70.09l0 152.58c175.16,-142.96 394.45,-222.67 626.08,-222.67zm1704.25 762.88l1115.36 0c-80.19,-227.61 -313.53,-397.73 -562.63,-397.73 -258.25,0 -479.52,158.99 -552.73,397.73zm1507.04 227.56c0,4.2 0,6.13 -0.04,7.28 0.2,2.61 0.27,5.31 0.27,8.29 0,63.47 -48.55,115.83 -110.09,118.61 -1.8,0.07 -3.48,0.11 -5.17,0.11 -1.67,0 -3.33,-0.04 -4.45,-0.08l-1410.48 0c35.78,181.14 160.21,335.39 332.25,421.68 44.57,21.29 93.11,38.97 144.92,52.89 251.99,52.73 541.22,14.32 761.68,-181.52 3.16,-3.47 9.14,-7.23 15.6,-12.92 36.93,-32.59 62.95,-24.33 91.92,11.82 0,0 41.4,57.53 115.33,175.23 31.84,49.63 29.5,73.49 -23.85,128.5 -2.19,2.21 -6.37,6.12 -12.53,11.55 -10.14,8.89 -22.26,18.78 -36.33,29.43 -40.08,30.2 -88.05,60.41 -143.94,88.53 -206.5,104.03 -461.03,152.99 -763.57,116.57 -10.04,-1.53 -18.08,-2.78 -25.82,-4.1l0 0.54 -17.22 -3.21c-221.12,-41.2 -419.77,-151.4 -565.9,-312.25 -0.77,-0.82 -0.82,-0.86 -1.03,-1.13 -131.09,-144.49 -215.44,-324.32 -241.82,-521.61l-0.24 0 -1.53 -12.84c-4.74,-40.16 -7.15,-80.66 -7.15,-121.37 0,-544.93 427.32,-986.86 954.62,-986.86 527.33,0 954.57,441.92 954.57,986.86z"/>
 </g>
</svg>
